<svg width="200" height="200" viewBox="0 0 200 200" fill="none" xmlns="http://www.w3.org/2000/svg">
  <rect width="200" height="200" fill="#1A1A1A" />
  <path
    d="M54.3828 118.709V74.5703H80.9326V79.7773H59.2266V118.709H54.3828ZM64.0703 118.709V84.9844H80.9326V90.1914H68.9141V118.709H64.0703ZM79.752 115.5V52.2891H118.29V115.5H79.752ZM117.109 115.5V52.2891H155.647V115.5H117.109ZM64.0703 143.777V103.695H68.9141V138.57H80.9326V143.777H64.0703ZM54.3828 154.191V103.695H59.2266V148.984H80.9326V154.191H54.3828ZM79.752 143.777V138.57H118.29V143.777H79.752ZM79.752 154.191V148.984H118.29V154.191H79.752ZM117.109 143.777V138.57H129.098V103.695H133.941V143.777H117.109ZM117.109 154.191V148.984H138.785V103.695H143.629V154.191H117.109Z"
    fill="#F0F0F0" />
</svg>